<?xml version="1.0" encoding="utf-8"?>
<!-- Generator: Adobe Illustrator 28.0.0, SVG Export Plug-In . SVG Version: 6.00 Build 0)  -->
<svg version="1.1" id="Layer_1" xmlns="http://www.w3.org/2000/svg" xmlns:xlink="http://www.w3.org/1999/xlink" x="0px" y="0px"
	 width="276px" height="39.3536px" viewBox="0 0 276 39.3536" style="enable-background:new 0 0 276 39.3536;" xml:space="preserve"
	>
<style type="text/css">
	.st0{fill:#007CBF;}
	.st1{fill:#FFFFFF;}
</style>
<g>
	<g>
		<path d="M87.4913,2.2979h4.334c1.8537,0,3.2567,0.2601,4.2092,0.7804c0.9524,0.5215,1.4293,1.4359,1.4293,2.7431
			c0,0.5268-0.0847,1.0037-0.2529,1.4293c-0.1682,0.4256-0.4112,0.7738-0.7285,1.047c-0.3173,0.2733-0.7048,0.4506-1.162,0.5334
			V8.927c0.4637,0.0946,0.8828,0.2588,1.2572,0.49c0.3744,0.2325,0.6746,0.5688,0.8999,1.0103
			c0.2253,0.4414,0.3383,1.026,0.3383,1.7565c0,0.8447-0.2063,1.5686-0.6188,2.1716c-0.4132,0.603-1.0017,1.0654-1.767,1.386
			c-0.7653,0.3205-1.675,0.4808-2.7286,0.4808h-5.2102V2.2979z M90.4439,7.8116h1.7144c0.8572,0,1.451-0.134,1.7808-0.4046
			c0.3304-0.2693,0.4953-0.6674,0.4953-1.1955c0-0.5334-0.1951-0.9157-0.5853-1.1469c-0.3908-0.2325-1.0083-0.3481-1.853-0.3481
			h-1.5522V7.8116z M90.4439,10.1553v3.6285h1.924c0.8887,0,1.5082-0.1708,1.8576-0.5137c0.3488-0.3429,0.5235-0.804,0.5235-1.382
			c0-0.3429-0.0762-0.6437-0.2286-0.9038c-0.1524-0.2601-0.4079-0.4637-0.7666-0.6096c-0.3587-0.1458-0.8526-0.2194-1.4812-0.2194
			H90.4439z"/>
		<path d="M102.4928,16.2221h-2.9047V1.4019h2.9047V16.2221z"/>
		<path d="M114.5331,5.5743v10.6478h-2.2287l-0.3902-1.3623h-0.1524c-0.2286,0.3626-0.515,0.6582-0.8579,0.8868
			c-0.3429,0.2286-0.7206,0.3967-1.1331,0.5045c-0.4125,0.1077-0.8414,0.1616-1.2855,0.1616c-0.762,0-1.426-0.134-1.991-0.4046
			c-0.5649-0.2693-1.005-0.691-1.319-1.2625c-0.3146-0.5715-0.4716-1.3137-0.4716-2.2281v-6.943h2.9053v6.2192
			c0,0.762,0.136,1.3361,0.4092,1.7236c0.2733,0.3875,0.7081,0.5807,1.3052,0.5807c0.5899,0,1.0536-0.134,1.3899-0.4046
			c0.337-0.2693,0.5734-0.6661,0.7101-1.1902c0.1366-0.5242,0.2043-1.164,0.2043-1.9194V5.5743H114.5331z"/>
		<path d="M121.1911,5.3733c0.9846,0,1.832,0.1892,2.5434,0.5675c0.7114,0.377,1.2605,0.9249,1.6468,1.6422
			c0.3876,0.7186,0.582,1.5949,0.582,2.6288v1.4096h-6.8675c0.0322,0.8198,0.2778,1.4622,0.7383,1.9299
			c0.4605,0.4664,1.1002,0.6989,1.9194,0.6989c0.6792,0,1.3019-0.0696,1.8668-0.2089c0.5649-0.1393,1.1462-0.3495,1.7427-0.6293
			v2.2478c-0.5268,0.2614-1.0773,0.4519-1.652,0.5715c-0.5748,0.1209-1.2717,0.1813-2.0908,0.1813
			c-1.0667,0-2.0113-0.1971-2.8337-0.5899c-0.8224-0.3941-1.4668-0.9945-1.9332-1.8011c-0.467-0.8053-0.7002-1.8221-0.7002-3.0478
			c0-1.2441,0.2109-2.2806,0.6332-3.1096c0.4224-0.8276,1.0116-1.4504,1.767-1.8668C119.3085,5.5822,120.188,5.3733,121.1911,5.3733
			z M121.2108,7.4411c-0.5656,0-1.0339,0.18-1.405,0.5426c-0.3718,0.3613-0.5859,0.9301-0.6431,1.7052h4.0765
			c-0.0066-0.4322-0.0841-0.8158-0.2332-1.1535c-0.1491-0.3363-0.3718-0.603-0.6667-0.8001
			C122.0437,7.5397,121.6679,7.4411,121.2108,7.4411z"/>
		<path d="M133.9809,4.5549c-0.5649,0-1.0654,0.109-1.5003,0.3284c-0.4348,0.2194-0.8001,0.5347-1.0957,0.9472
			c-0.2943,0.4138-0.5189,0.9117-0.6713,1.4963c-0.1524,0.5833-0.2286,1.2415-0.2286,1.9706c0,0.9853,0.1222,1.8248,0.3665,2.5197
			s0.624,1.2257,1.139,1.5909c0.5137,0.3652,1.1771,0.5478,1.9903,0.5478c0.5649,0,1.1324-0.0644,1.7-0.1905
			c0.5688-0.1274,1.1863-0.3087,1.8523-0.5439v2.4764c-0.6161,0.2549-1.2218,0.4375-1.8182,0.5478
			c-0.5977,0.1117-1.2677,0.1668-2.01,0.1668c-1.4359,0-2.6143-0.2969-3.5392-0.8907c-0.9236-0.5938-1.608-1.4254-2.052-2.4948
			c-0.444-1.0707-0.6661-2.32-0.6661-3.7481c0-1.0536,0.1419-2.0192,0.4283-2.8955c0.2851-0.8763,0.7042-1.6356,1.2572-2.2767
			c0.5518-0.6411,1.2349-1.1364,2.0481-1.4858c0.8119-0.3495,1.7459-0.5242,2.7996-0.5242c0.6923,0,1.386,0.088,2.0809,0.2627
			s1.361,0.4138,1.9956,0.7186l-0.9525,2.4002c-0.5202-0.247-1.0444-0.4637-1.5712-0.6477
			C135.0069,4.6468,134.4893,4.5549,133.9809,4.5549z"/>
		<path d="M145.43,5.3733c0.1458,0,0.3153,0.0092,0.5097,0.025c0.1931,0.0158,0.3508,0.0355,0.4716,0.0617l-0.2194,2.7234
			c-0.0959-0.0315-0.2299-0.0552-0.4046-0.0709c-0.1747-0.0158-0.3258-0.0236-0.4532-0.0236c-0.3744,0-0.7383,0.0473-1.0904,0.1419
			c-0.3521,0.0959-0.6687,0.2496-0.9472,0.4624c-0.2798,0.2128-0.5005,0.4926-0.6621,0.8382
			c-0.1616,0.3468-0.243,0.7698-0.243,1.2717v5.4191h-2.9046V5.5743h2.2005l0.4283,1.7906h0.1432
			c0.2089-0.3626,0.4703-0.6936,0.7856-0.9958c0.314-0.3008,0.6726-0.5426,1.0759-0.7239S144.9597,5.3733,145.43,5.3733z"/>
		<path d="M157.2404,10.8792c0,0.8894-0.1182,1.6763-0.3573,2.3621c-0.2378,0.6858-0.5833,1.2651-1.0379,1.7381
			c-0.4532,0.4729-0.9997,0.8303-1.6382,1.072c-0.6385,0.2404-1.3571,0.3613-2.1571,0.3613c-0.7488,0-1.4372-0.1209-2.0625-0.3613
			c-0.6253-0.2417-1.1679-0.5991-1.6277-1.072c-0.4611-0.4729-0.8158-1.0523-1.0667-1.7381
			c-0.2509-0.6858-0.377-1.4727-0.377-2.3621c0-1.181,0.2102-2.1808,0.6293-3.0006c0.4191-0.8185,1.0155-1.4412,1.7906-1.8668
			c0.7738-0.4256,1.6986-0.6385,2.7706-0.6385c0.9971,0,1.8813,0.2128,2.6537,0.6385c0.7711,0.4256,1.3768,1.0484,1.8182,1.8668
			C157.0197,8.6984,157.2404,9.6981,157.2404,10.8792z M149.8783,10.8792c0,0.6989,0.0762,1.2861,0.2286,1.7617
			c0.1524,0.4769,0.3902,0.8355,0.7147,1.0759c0.3232,0.2417,0.7462,0.3626,1.2664,0.3626c0.5137,0,0.9314-0.1209,1.252-0.3626
			c0.3205-0.2404,0.5557-0.5991,0.7055-1.0759c0.1485-0.4756,0.2233-1.0628,0.2233-1.7617c0-0.7055-0.0749-1.2901-0.2233-1.7578
			c-0.1498-0.4664-0.3862-0.8171-0.7094-1.0523c-0.3245-0.2352-0.7462-0.3521-1.2677-0.3521c-0.7672,0-1.3242,0.2641-1.6711,0.7909
			C150.0517,9.0347,149.8783,9.8256,149.8783,10.8792z"/>
		<path d="M166.5823,13.06c0,0.7239-0.1695,1.3347-0.5097,1.834c-0.3389,0.4979-0.846,0.8763-1.5187,1.1337
			c-0.6726,0.2562-1.5108,0.3849-2.5145,0.3849c-0.7436,0-1.3794-0.0473-1.9102-0.1432c-0.5294-0.0946-1.0641-0.2535-1.6041-0.4756
			v-2.4002c0.578,0.2601,1.1981,0.4743,1.8616,0.6424c0.6634,0.1682,1.2467,0.2522,1.7473,0.2522
			c0.5662,0,0.9708-0.0841,1.2152-0.2522c0.2444-0.1682,0.3665-0.3889,0.3665-0.6621c0-0.1774-0.0486-0.3376-0.1471-0.4808
			c-0.0985-0.1419-0.31-0.3048-0.6345-0.4848c-0.3232-0.1813-0.8316-0.4178-1.5239-0.7107
			c-0.6661-0.2785-1.2139-0.561-1.6422-0.8474c-0.4283-0.2851-0.7462-0.624-0.9525-1.0142c-0.2063-0.3902-0.31-0.8868-0.31-1.4911
			c0-0.984,0.3823-1.7249,1.1482-2.2228c0.7646-0.4992,1.7893-0.7488,3.0715-0.7488c0.6608,0,1.2901,0.067,1.8905,0.201
			c0.6004,0.1327,1.2178,0.3455,1.8524,0.6372l-0.8763,2.0954c-0.5268-0.2286-1.0234-0.4151-1.4898-0.561
			c-0.4677-0.1458-0.9419-0.2194-1.4241-0.2194c-0.4256,0-0.7462,0.0565-0.963,0.1708c-0.2155,0.1143-0.3232,0.289-0.3232,0.5242
			c0,0.1721,0.0552,0.3245,0.1668,0.4572c0.1104,0.134,0.3271,0.2811,0.6477,0.4427c0.3206,0.1629,0.7922,0.3705,1.4136,0.624
			c0.6043,0.2483,1.1272,0.5071,1.5725,0.7764c0.444,0.2706,0.7869,0.603,1.0287,0.9997
			C166.4614,11.9183,166.5823,12.432,166.5823,13.06z"/>
		<path d="M175.8887,13.06c0,0.7239-0.1708,1.3347-0.5097,1.834c-0.3403,0.4979-0.846,0.8763-1.5187,1.1337
			c-0.674,0.2562-1.5121,0.3849-2.5145,0.3849c-0.7436,0-1.3807-0.0473-1.9102-0.1432c-0.5307-0.0946-1.0654-0.2535-1.6054-0.4756
			v-2.4002c0.578,0.2601,1.1994,0.4743,1.8629,0.6424c0.6634,0.1682,1.2454,0.2522,1.7473,0.2522
			c0.5649,0,0.9695-0.0841,1.2139-0.2522c0.2444-0.1682,0.3678-0.3889,0.3678-0.6621c0-0.1774-0.0499-0.3376-0.1485-0.4808
			c-0.0985-0.1419-0.3087-0.3048-0.6332-0.4848c-0.3232-0.1813-0.8316-0.4178-1.5239-0.7107
			c-0.6661-0.2785-1.2139-0.561-1.6435-0.8474c-0.4283-0.2851-0.7462-0.624-0.9525-1.0142
			c-0.2063-0.3902-0.3087-0.8868-0.3087-1.4911c0-0.984,0.3823-1.7249,1.1469-2.2228c0.7659-0.4992,1.7893-0.7488,3.0728-0.7488
			c0.6595,0,1.2901,0.067,1.8905,0.201c0.5991,0.1327,1.2165,0.3455,1.8524,0.6372l-0.8763,2.0954
			c-0.5268-0.2286-1.0247-0.4151-1.4911-0.561c-0.4664-0.1458-0.9406-0.2194-1.4241-0.2194c-0.4256,0-0.7462,0.0565-0.9617,0.1708
			c-0.2155,0.1143-0.3232,0.289-0.3232,0.5242c0,0.1721,0.0552,0.3245,0.1655,0.4572c0.1117,0.134,0.3271,0.2811,0.6477,0.4427
			c0.3206,0.1629,0.7922,0.3705,1.4149,0.624c0.603,0.2483,1.1272,0.5071,1.5712,0.7764c0.4454,0.2706,0.7882,0.603,1.0287,0.9997
			C175.7679,11.9183,175.8887,12.432,175.8887,13.06z"/>
		<path d="M182.4758,2.2979h4.334c1.8537,0,3.2567,0.2601,4.2092,0.7804c0.9525,0.5215,1.4293,1.4359,1.4293,2.7431
			c0,0.5268-0.0854,1.0037-0.2536,1.4293c-0.1682,0.4256-0.4112,0.7738-0.7278,1.047c-0.3179,0.2733-0.7055,0.4506-1.1626,0.5334
			V8.927c0.4637,0.0946,0.8828,0.2588,1.2572,0.49c0.3744,0.2325,0.6752,0.5688,0.8999,1.0103
			c0.226,0.4414,0.3389,1.026,0.3389,1.7565c0,0.8447-0.2063,1.5686-0.6188,2.1716c-0.4138,0.603-1.0024,1.0654-1.767,1.386
			c-0.7659,0.3205-1.675,0.4808-2.7286,0.4808h-5.2102V2.2979z M185.4277,7.8116h1.7144c0.8579,0,1.4517-0.134,1.7814-0.4046
			c0.3297-0.2693,0.4953-0.6674,0.4953-1.1955c0-0.5334-0.1958-0.9157-0.5859-1.1469c-0.3902-0.2325-1.0076-0.3481-1.8524-0.3481
			h-1.5528V7.8116z M185.4277,10.1553v3.6285h1.9246c0.8881,0,1.5082-0.1708,1.8576-0.5137c0.3481-0.3429,0.5229-0.804,0.5229-1.382
			c0-0.3429-0.0762-0.6437-0.2286-0.9038c-0.1524-0.2601-0.4073-0.4637-0.7659-0.6096c-0.3587-0.1458-0.8526-0.2194-1.4819-0.2194
			H185.4277z"/>
		<path d="M197.4772,16.2221h-2.9046V1.4019h2.9046V16.2221z"/>
		<path d="M209.5175,5.5743v10.6478h-2.2294l-0.3902-1.3623h-0.1524c-0.2286,0.3626-0.515,0.6582-0.8579,0.8868
			c-0.3429,0.2286-0.7199,0.3967-1.1324,0.5045c-0.4125,0.1077-0.8421,0.1616-1.2861,0.1616c-0.762,0-1.4254-0.134-1.9903-0.4046
			c-0.5649-0.2693-1.005-0.691-1.319-1.2625c-0.3153-0.5715-0.4716-1.3137-0.4716-2.2281v-6.943h2.9046v6.2192
			c0,0.762,0.1366,1.3361,0.4099,1.7236c0.2733,0.3875,0.7081,0.5807,1.3045,0.5807c0.5899,0,1.0536-0.134,1.3899-0.4046
			c0.3376-0.2693,0.5741-0.6661,0.7107-1.1902c0.1366-0.5242,0.2036-1.164,0.2036-1.9194V5.5743H209.5175z"/>
		<path d="M216.1755,5.3733c0.984,0,1.8313,0.1892,2.5434,0.5675c0.7107,0.377,1.2599,0.9249,1.6474,1.6422
			c0.3875,0.7186,0.5807,1.5949,0.5807,2.6288v1.4096h-6.8668c0.0315,0.8198,0.2772,1.4622,0.7383,1.9299
			c0.4598,0.4664,1.0996,0.6989,1.9194,0.6989c0.6792,0,1.3019-0.0696,1.8668-0.2089c0.5649-0.1393,1.1456-0.3495,1.7433-0.6293
			v2.2478c-0.5281,0.2614-1.0786,0.4519-1.6527,0.5715c-0.5754,0.1209-1.2717,0.1813-2.0914,0.1813
			c-1.0668,0-2.0113-0.1971-2.8337-0.5899c-0.8224-0.3941-1.4661-0.9945-1.9325-1.8011c-0.4677-0.8053-0.7002-1.8221-0.7002-3.0478
			c0-1.2441,0.2102-2.2806,0.6332-3.1096c0.4217-0.8276,1.0116-1.4504,1.767-1.8668
			C214.2929,5.5822,215.1718,5.3733,216.1755,5.3733z M216.1952,7.4411c-0.5662,0-1.0339,0.18-1.4057,0.5426
			c-0.3718,0.3613-0.5859,0.9301-0.6424,1.7052h4.0765c-0.0066-0.4322-0.0841-0.8158-0.2339-1.1535
			c-0.1484-0.3363-0.3718-0.603-0.666-0.8001C217.0281,7.5397,216.6524,7.4411,216.1952,7.4411z"/>
		<path d="M231.5632,12.3558c0,0.825-0.201,1.5423-0.6004,2.1519c-0.4007,0.6096-0.9827,1.0799-1.7486,1.4096
			c-0.7646,0.3311-1.6934,0.4953-2.7851,0.4953c-0.4835,0-0.9538-0.0315-1.4149-0.0946c-0.4598-0.0644-0.9012-0.1576-1.3242-0.2811
			c-0.4217-0.1235-0.8237-0.2785-1.2047-0.4624v-2.7431c0.6608,0.293,1.3466,0.5557,2.0573,0.7909
			c0.7121,0.2352,1.4162,0.3521,2.1151,0.3521c0.4821,0,0.871-0.0631,1.1666-0.1905c0.2956-0.1261,0.5097-0.3008,0.6424-0.5242
			c0.134-0.222,0.201-0.4756,0.201-0.762c0-0.3481-0.1182-0.6477-0.3534-0.8946c-0.2352-0.2483-0.557-0.4795-0.9669-0.695
			c-0.4086-0.2168-0.871-0.448-1.3847-0.6963c-0.3245-0.1524-0.6766-0.3376-1.0576-0.557c-0.381-0.2181-0.7436-0.4874-1.0865-0.804
			c-0.3429-0.3179-0.624-0.7042-0.8421-1.1574c-0.2194-0.4545-0.3284-0.9984-0.3284-1.6343c0-0.8316,0.1905-1.5423,0.5715-2.1335
			c0.381-0.5899,0.9249-1.0418,1.633-1.3571c0.7081-0.314,1.545-0.4716,2.5092-0.4716c0.7239,0,1.4149,0.0854,2.0717,0.2535
			c0.6569,0.1682,1.3453,0.4112,2.0626,0.7278l-0.9525,2.2951c-0.6411-0.2601-1.2165-0.4611-1.7236-0.6043
			c-0.5084-0.1432-1.026-0.2141-1.5528-0.2141c-0.3692,0-0.6831,0.0591-0.9433,0.176c-0.2601,0.1182-0.4572,0.2825-0.5899,0.4953
			c-0.134,0.2128-0.201,0.4585-0.201,0.7383c0,0.3297,0.0972,0.6083,0.2903,0.8329c0.1944,0.226,0.4861,0.4427,0.8763,0.6529
			c0.3915,0.2089,0.8789,0.4545,1.4622,0.7331c0.712,0.3363,1.319,0.6871,1.8248,1.0523c0.5045,0.3652,0.8933,0.7948,1.1666,1.2861
			C231.4266,11.0145,231.5632,11.6254,231.5632,12.3558z"/>
		<path d="M236.2755,1.4019v3.0189c0,0.5281-0.0171,1.0286-0.0525,1.5055c-0.0342,0.4756-0.0618,0.8132-0.0801,1.0089h0.1524
			c0.2286-0.3678,0.4992-0.6661,0.8132-0.8946c0.3153-0.2286,0.6621-0.3967,1.0431-0.5045s0.7909-0.1629,1.2296-0.1629
			c0.7672,0,1.4372,0.1353,2.0087,0.4059c0.5715,0.2693,1.0168,0.691,1.3334,1.2664c0.3179,0.5741,0.4769,1.319,0.4769,2.2333v6.943
			h-2.9046v-6.2192c0-0.762-0.1406-1.3361-0.4191-1.7236c-0.2798-0.3875-0.712-0.582-1.2953-0.582
			c-0.5846,0-1.0457,0.1353-1.382,0.4059c-0.3363,0.2693-0.5741,0.6661-0.7133,1.1902c-0.1406,0.5242-0.2102,1.164-0.2102,1.9194
			v5.0092h-2.9046V1.4019H236.2755z"/>
		<path d="M246.8668,1.4019c0.4322,0,0.804,0.0998,1.1154,0.3008c0.3114,0.1997,0.4664,0.5728,0.4664,1.118
			c0,0.5399-0.155,0.913-0.4664,1.1193c-0.3114,0.2063-0.6831,0.31-1.1154,0.31c-0.4375,0-0.8106-0.1038-1.118-0.31
			c-0.3087-0.2063-0.4624-0.5794-0.4624-1.1193c0-0.5452,0.1537-0.9183,0.4624-1.118
			C246.0562,1.5018,246.4293,1.4019,246.8668,1.4019z M248.3145,5.5743v10.6478h-2.9046V5.5743H248.3145z"/>
		<path d="M254.9738,5.3733c0.984,0,1.8313,0.1892,2.5434,0.5675c0.7107,0.377,1.2599,0.9249,1.6474,1.6422
			c0.3875,0.7186,0.5807,1.5949,0.5807,2.6288v1.4096h-6.8669c0.0315,0.8198,0.2772,1.4622,0.7383,1.9299
			c0.4598,0.4664,1.0996,0.6989,1.9194,0.6989c0.6792,0,1.3019-0.0696,1.8668-0.2089c0.5649-0.1393,1.1456-0.3495,1.7433-0.6293
			v2.2478c-0.5281,0.2614-1.0786,0.4519-1.6527,0.5715c-0.5754,0.1209-1.2717,0.1813-2.0915,0.1813
			c-1.0667,0-2.0113-0.1971-2.8337-0.5899c-0.8224-0.3941-1.4661-0.9945-1.9325-1.8011c-0.4677-0.8053-0.7002-1.8221-0.7002-3.0478
			c0-1.2441,0.2102-2.2806,0.6332-3.1096c0.4217-0.8276,1.0116-1.4504,1.767-1.8668
			C253.0912,5.5822,253.9701,5.3733,254.9738,5.3733z M254.9935,7.4411c-0.5662,0-1.0339,0.18-1.4057,0.5426
			c-0.3718,0.3613-0.5859,0.9301-0.6424,1.7052h4.0765c-0.0066-0.4322-0.0841-0.8158-0.2339-1.1535
			c-0.1484-0.3363-0.3718-0.603-0.666-0.8001C255.8264,7.5397,255.4507,7.4411,254.9935,7.4411z"/>
		<path d="M264.4274,16.2221h-2.9046V1.4019h2.9046V16.2221z"/>
		<path d="M270.0672,16.4126c-1.1876,0-2.1545-0.4651-2.9007-1.3952c-0.7462-0.9301-1.1193-2.2964-1.1193-4.1001
			c0-1.8221,0.3784-3.2016,1.1337-4.1382c0.7554-0.9367,1.7433-1.4057,2.9625-1.4057c0.5071,0,0.9551,0.0709,1.3426,0.2102
			c0.3876,0.1393,0.7226,0.3271,1.005,0.5623c0.2825,0.2352,0.5215,0.4979,0.7186,0.7895h0.0959
			c-0.0381-0.2023-0.0841-0.5032-0.1379-0.8999c-0.0539-0.3967-0.0815-0.804-0.0815-1.2231V1.4019H276v14.8202h-2.2281
			l-0.5623-1.3807h-0.1235c-0.1839,0.2916-0.4138,0.557-0.691,0.7948c-0.2759,0.2391-0.6043,0.427-0.9853,0.5675
			C271.0289,16.343,270.5809,16.4126,270.0672,16.4126z M271.0854,14.0978c0.7948,0,1.3544-0.2365,1.6815-0.7094
			c0.3271-0.4729,0.5005-1.185,0.5189-2.1374v-0.3153c0-1.0339-0.1589-1.8261-0.4756-2.3752
			c-0.3179-0.5491-0.9078-0.825-1.7722-0.825c-0.6411,0-1.1429,0.2772-1.5042,0.829c-0.3626,0.5531-0.5439,1.3492-0.5439,2.391
			s0.1826,1.8261,0.5478,2.3529C269.903,13.8351,270.4193,14.0978,271.0854,14.0978z"/>
		<path d="M96.0345,32.5557c0,1.6895-0.4092,3.0084-1.2283,3.9569c-0.8191,0.9498-1.9496,1.4241-3.3907,1.4241
			c-0.9078,0-1.7078-0.2194-2.4002-0.6569c-0.6923-0.4388-1.2224-1.0667-1.5909-1.8865c-0.3678-0.8185-0.5518-1.7643-0.5518-2.8377
			c0-1.6895,0.4092-3.0045,1.2283-3.9477s1.943-1.4149,3.3717-1.4149c1.4221,0,2.5381,0.4782,3.348,1.4333
			C95.6299,29.5827,96.0345,30.8925,96.0345,32.5557z M87.8631,32.5557c0,1.4228,0.3127,2.5316,0.938,3.329
			c0.6253,0.7961,1.5095,1.1955,2.6524,1.1955s2.0271-0.3994,2.6524-1.1955c0.6253-0.7974,0.938-1.9062,0.938-3.329
			c0-1.4293-0.3153-2.5368-0.9472-3.3237c-0.6319-0.7882-1.5193-1.181-2.6623-1.181c-1.1429,0-2.0238,0.3915-2.6432,1.1758
			C88.1725,30.011,87.8631,31.1211,87.8631,32.5557z"/>
		<path d="M102.1643,28.2125h-2.4383v9.5337h-0.9426v-9.5337h-1.9246v-0.5531l1.9246-0.3521v-0.8001
			c0-1.2691,0.2332-2.2018,0.6996-2.7956c0.467-0.5938,1.2303-0.8907,2.2905-0.8907c0.5715,0,1.1429,0.0867,1.7144,0.2575
			l-0.2187,0.8198c-0.5078-0.159-1.0129-0.2391-1.5141-0.2391c-0.737,0-1.2592,0.2181-1.5673,0.6529
			c-0.3081,0.4348-0.4618,1.1416-0.4618,2.119v0.9616h2.4383V28.2125z"/>
		<path d="M108.4945,37.7462V23.822h0.9708v13.9242H108.4945z"/>
		<path d="M113.333,37.7462h-0.9426V22.926h0.9426V37.7462z"/>
		<path d="M116.9628,37.7462h-0.9426V22.926h0.9426V37.7462z"/>
		<path d="M119.5167,24.517c0-0.6096,0.1997-0.9144,0.6004-0.9144c0.1964,0,0.3508,0.0788,0.4618,0.2378
			c0.111,0.159,0.1662,0.3849,0.1662,0.6766c0,0.2851-0.0552,0.511-0.1662,0.6766c-0.111,0.1642-0.2654,0.247-0.4618,0.247
			C119.7164,25.4405,119.5167,25.1331,119.5167,24.517z M120.5927,37.7462h-0.9426V27.3927h0.9426V37.7462z"/>
		<path d="M130.4982,37.7462v-6.7145c0-1.0418-0.2194-1.7985-0.6569-2.2714c-0.4388-0.4729-1.118-0.7094-2.0389-0.7094
			c-1.2375,0-2.144,0.3127-2.7181,0.938c-0.5748,0.6253-0.8625,1.6395-0.8625,3.0426v5.7147h-0.9426V27.3927h0.8001l0.1806,1.4201
			h0.0578c0.6726-1.0799,1.8688-1.6198,3.5898-1.6198c2.3503,0,3.5247,1.2612,3.5247,3.7809v6.7723H130.4982z"/>
		<path d="M142.5674,32.5557c0,1.6895-0.4099,3.0084-1.2283,3.9569c-0.8198,0.9498-1.9496,1.4241-3.3907,1.4241
			c-0.9078,0-1.7078-0.2194-2.4002-0.6569c-0.6923-0.4388-1.2231-1.0667-1.5909-1.8865c-0.3678-0.8185-0.5518-1.7643-0.5518-2.8377
			c0-1.6895,0.4086-3.0045,1.2283-3.9477c0.8185-0.9433,1.943-1.4149,3.371-1.4149c1.4228,0,2.5381,0.4782,3.3487,1.4333
			C142.1627,29.5827,142.5674,30.8925,142.5674,32.5557z M134.396,32.5557c0,1.4228,0.3127,2.5316,0.938,3.329
			c0.6253,0.7961,1.5095,1.1955,2.6524,1.1955s2.0271-0.3994,2.6524-1.1955c0.6253-0.7974,0.938-1.9062,0.938-3.329
			c0-1.4293-0.3153-2.5368-0.9472-3.3237c-0.6319-0.7882-1.52-1.181-2.6629-1.181s-2.0231,0.3915-2.6432,1.1758
			C134.7047,30.011,134.396,31.1211,134.396,32.5557z"/>
		<path d="M144.5209,24.517c0-0.6096,0.1997-0.9144,0.6004-0.9144c0.1958,0,0.3508,0.0788,0.4611,0.2378
			c0.1117,0.159,0.1668,0.3849,0.1668,0.6766c0,0.2851-0.0552,0.511-0.1668,0.6766c-0.1104,0.1642-0.2654,0.247-0.4611,0.247
			C144.7206,25.4405,144.5209,25.1331,144.5209,24.517z M145.5968,37.7462h-0.9433V27.3927h0.9433V37.7462z"/>
		<path d="M154.7023,35.0504c0,0.9275-0.3521,1.6408-1.0576,2.1387c-0.7042,0.4992-1.7039,0.7475-2.9992,0.7475
			c-1.3847,0-2.4829-0.2128-3.2961-0.6385v-1.0181c1.0418,0.5202,2.1401,0.7804,3.2961,0.7804c1.0221,0,1.7985-0.1695,2.3279-0.5097
			c0.5307-0.3389,0.7961-0.7922,0.7961-1.3571c0-0.5202-0.2115-0.959-0.6332-1.3137c-0.423-0.356-1.1167-0.7055-2.0823-1.0484
			c-1.0339-0.3744-1.7617-0.6963-2.1808-0.9669c-0.4191-0.2693-0.7344-0.5741-0.9472-0.9144
			c-0.2128-0.3389-0.3192-0.7541-0.3192-1.2428c0-0.7738,0.3258-1.3873,0.9761-1.8379c0.6516-0.4506,1.5607-0.6766,2.7286-0.6766
			c1.118,0,2.1782,0.2102,3.1818,0.6293l-0.3534,0.8566c-1.0155-0.4191-1.9588-0.628-2.8284-0.628
			c-0.8447,0-1.5147,0.1393-2.01,0.4191c-0.4953,0.2785-0.7422,0.6661-0.7422,1.1613c0,0.5399,0.1918,0.9722,0.5767,1.2953
			c0.3836,0.3245,1.1351,0.6858,2.2517,1.0865c0.9341,0.3363,1.6133,0.6398,2.0389,0.9091
			c0.4256,0.2706,0.7436,0.5767,0.9564,0.9196C154.5959,34.1847,154.7023,34.588,154.7023,35.0504z"/>
	</g>
	<g>
		<path class="st0" d="M29.6685,37.1756c0-1.0659,0.8714-1.9372,1.9473-1.9372c1.0732,0,1.9388,0.8713,1.9388,1.9372
			c0,1.0786-0.8656,1.9489-1.9388,1.9489C30.5399,39.1245,29.6685,38.2541,29.6685,37.1756z M33.2482,37.1756
			c0-0.9435-0.6894-1.6779-1.6324-1.6779c-0.9488,0-1.6403,0.7344-1.6403,1.6779c0,0.9541,0.6914,1.6958,1.6403,1.6958
			C32.5588,38.8714,33.2482,38.1297,33.2482,37.1756z M32.5865,38.2656h-0.317l-0.6218-1.0021h-0.488v1.0021h-0.2652v-2.1696h0.9483
			c0.5732,0,0.7684,0.2144,0.7684,0.5733c0,0.4258-0.2961,0.5858-0.6816,0.5942L32.5865,38.2656z M31.5661,37.0543
			c0.307,0,0.76,0.0523,0.76-0.3891c0-0.3389-0.2778-0.3808-0.545-0.3808h-0.6214v0.77H31.5661z"/>
		<path class="st0" d="M66.263,37.1756c0-1.0659,0.8709-1.9372,1.9477-1.9372c1.0712,0,1.9379,0.8713,1.9379,1.9372
			c0,1.0786-0.8667,1.9489-1.9379,1.9489C67.1339,39.1245,66.263,38.2541,66.263,37.1756z M69.8421,37.1756
			c0-0.9435-0.6867-1.6779-1.6314-1.6779c-0.9477,0-1.6391,0.7344-1.6391,1.6779c0,0.9541,0.6914,1.6958,1.6391,1.6958
			C69.1554,38.8714,69.8421,38.1297,69.8421,37.1756z M69.181,38.2656h-0.3169l-0.6209-1.0021h-0.4885v1.0021H67.487v-2.1696h0.9487
			c0.5753,0,0.77,0.2144,0.77,0.5733c0,0.4258-0.2961,0.5858-0.6816,0.5942L69.181,38.2656z M68.159,37.0543
			c0.3086,0,0.7595,0.0523,0.7595-0.3891c0-0.3389-0.2756-0.3808-0.5424-0.3808h-0.6213v0.77H68.159z"/>
		<polygon class="st0" points="27.7584,38.9393 27.7584,28.2339 38.4633,28.2339 38.4633,11.1187 27.7584,11.1187 27.7584,0.4173 
			10.7034,0.4173 10.7034,11.1187 0,11.1187 0,28.2339 10.7034,28.2339 10.7034,38.9393 		"/>
		<path class="st0" d="M59.5886,39.3536c7.392-4.0829,11.8739-10.5883,14.1815-17.7257C76.1661,14.2228,75.7697,5.4589,72.9934,0
			c-4.2219,2.1266-8.4685,3.1931-13.4049,3.2083C54.6511,3.2219,50.4047,2.1266,46.1838,0
			c-2.7757,5.4589-3.1748,14.2228-0.7783,21.6279C47.7153,28.7653,52.1965,35.2707,59.5886,39.3536L59.5886,39.3536z"/>
		<g>
			<path class="st1" d="M9.3624,15.9813l7.0954,0.6862c1.3306,0.1821,1.4859,1.4739,1.1334,2.2506l-4.8611,9.1254l0.0063-0.0126
				c-2.4656-1.9394-4.0493-4.9437-4.0493-8.323c0-1.3107,0.2411-2.5691,0.6768-3.7303L9.3624,15.9813z"/>
			<path class="st1" d="M29.1602,15.9813l-7.0965,0.6862c-1.3328,0.1821-1.4875,1.4739-1.1345,2.2506l4.8621,9.1254l-0.0079-0.0126
				c2.4646-1.9394,4.0488-4.9437,4.0488-8.323c0-1.3107-0.239-2.5691-0.6762-3.7303L29.1602,15.9813z"/>
			<path class="st1" d="M19.2607,10.4795c1.2511,0,1.6099,1.4153,1.057,2.1471c-0.4974,0.6465-0.5947,0.8379-0.567,1.4467
				c0.0199,0.512,0.4922,1.1391,1.5676,1.1637h7.5233c-1.6831-3.6058-5.3412-6.1001-9.5809-6.1001
				c-4.2408,0-7.8978,2.4943-9.5841,6.1001h7.5254c1.0743-0.0246,1.5467-0.6517,1.5692-1.1637
				c0.0256-0.6089-0.0702-0.8003-0.5696-1.4467C17.6509,11.8948,18.0065,10.4795,19.2607,10.4795z"/>
			<path class="st1" d="M19.2607,30.2799c2.1471,0,4.145-0.6391,5.8125-1.7416l0.0015,0.0104l-5.1545-7.7063
				c-0.363-0.4942-0.9378-0.5387-1.3201,0l-5.1534,7.7063l0.001-0.0104C15.1147,29.6408,17.1121,30.2799,19.2607,30.2799"/>
			<path class="st1" d="M59.5797,36.0459c6.0866-3.7701,9.3268-9.1668,11.4042-15.2653c1.8432-5.4119,2.2929-11.7457,0.2667-16.6906
				c-3.0414,1.0456-4.8218,1.3689-6.4772,1.6256c-1.5425,0.24-2.9201,0.386-5.1786,0.4184h-0.0152
				c-2.2552-0.0324-3.635-0.1783-5.1754-0.4184c-1.6554-0.2568-3.4385-0.58-6.4793-1.6256
				c-2.0253,4.9449-1.5739,11.2787,0.2688,16.6906c2.0759,6.0985,5.3177,11.4952,11.4011,15.2653H59.5797z"/>
		</g>
		<g>
			<path class="st0" d="M10.4158,17.5425l5.3704,0.4953c0.3871,0.0319,0.4185,0.1941,0.3285,0.4191l-3.7601,7.1807
				c-1.3709-1.5922-2.1988-3.6644-2.1988-5.9297C10.1558,18.9615,10.2452,18.2361,10.4158,17.5425z"/>
			<path class="st0" d="M16.7298,10.9596c-0.535,0.8934-0.1009,2.0587,0.4053,2.611c0.0947,0.0936,0.0476,0.1941-0.0372,0.2181
				l-4.759,0.0032C13.4818,12.4571,15.0011,11.4591,16.7298,10.9596z"/>
			<path class="st0" d="M28.1052,17.5425l-5.371,0.4953c-0.3892,0.0319-0.418,0.1941-0.3291,0.4191l3.7622,7.1807
				c1.3698-1.5922,2.1973-3.6644,2.1973-5.9297C28.3646,18.9615,28.2752,18.2361,28.1052,17.5425z"/>
			<path class="st0" d="M21.7896,10.9596c0.5356,0.8934,0.1016,2.0587-0.4059,2.611c-0.0942,0.0936-0.0481,0.1941,0.0377,0.2181
				l4.758,0.0032C25.0392,12.4571,23.5208,11.4591,21.7896,10.9596z"/>
			<path class="st0" d="M59.5844,34.5479c4.1147-2.5858,8.7802-8.4627,10.6448-16.1905c0.9906-4.1001,1.2673-8.708-0.022-12.3635
				c-1.8442,0.4911-3.5629,0.8975-5.3417,1.137c-1.7784,0.2427-3.5383,0.4142-5.2706,0.4258h-0.0136
				c-1.7307-0.0116-3.4923-0.1831-5.2691-0.4258c-1.7814-0.2395-3.5006-0.6459-5.3427-1.137
				c-1.2899,3.6555-1.0121,8.2633-0.0236,12.3635c1.8657,7.7278,6.531,13.6046,10.6473,16.1905H59.5844z"/>
			<path class="st0" d="M19.1111,22.5851c0.0832-0.1068,0.2008-0.1172,0.2977,0l3.5555,5.4437
				c-1.1313,0.5021-2.386,0.7845-3.7036,0.7845c-1.3201,0-2.5723-0.2825-3.7057-0.7845L19.1111,22.5851
				c0.0989-0.1172,0.215-0.1068,0.2977,0"/>
		</g>
		<g>
			<path class="st1" d="M55.3866,10.3026c-1.3913,0.7229-1.8731,2.4233-1.2495,3.7946c0.5418,1.19,1.613,1.9792,2.8536,2.3474
				c0.6241,0.1883,1.2527,0.2333,1.8981,0.2636c0.7877,0.0382,1.5021,0.0613,2.2616,0.2547
				c0.1611,0.0424,0.3358,0.1366,0.4227,0.293c0.2003,0.3807,0.0162,0.7965-0.3824,0.9132
				c-0.0094,0.6626-0.0664,1.9948-0.0664,1.9948s3.2271-0.3055,2.6821-3.2104c-0.1318-0.6951-0.6794-1.4069-1.3029-1.7291
				c-1.6198-0.8295-3.396-0.4692-5.0567-1.0074c-0.5565-0.1815-1.3363-0.4576-1.4865-1.0852
				c-0.0612-0.2516-0.0062-0.7538,0.2531-0.8353c0.4174-0.1344,0.8803,0.2165,1.4881,0.3567
				c0.3839,0.0878,0.7642,0.0868,1.0665-0.0047c0.1319-0.0387,0.33-0.0931,0.3452-0.1689c-0.0167-0.0669-0.1674-0.1271-0.2453-0.168
				c-0.1863-0.0967-0.3792-0.1396-0.5822-0.217c-0.3337-0.1272-0.6684-0.2881-1.0063-0.477
				c0.3179-0.0644,0.8535-0.0811,1.1679-0.0445c0.2542,0.0319,1.0367,0.0214,1.2704-0.0403
				c0.0508-0.0116,0.1674-0.0597,0.1167-0.1455c-0.0909-0.1537-0.2458-0.2087-0.3483-0.3515
				c-0.229-0.3112-0.4262-0.6323-0.7945-0.772C57.6278,9.8561,56.4452,9.752,55.3866,10.3026z"/>
			<path class="st1" d="M60.7733,20.664l0.0183-3.3898c0,0-0.4357-0.0904-1.045-0.1287c-0.7914-0.0533-1.1507-0.0434-1.1507-0.0434
				l-0.0027,0.2856c0,0-0.3818,0.1611-0.4398,0.2647c-0.0267,0.047-0.1277,0.1757-0.0806,0.3028
				c0.3133,0.8364,0.7453,1.6496,0.8682,2.5446C59.5321,20.5814,60.0536,20.5657,60.7733,20.664z"/>
			<path class="st1" d="M56.7214,20.1498c-0.1413,1.3306,0.727,2.0409,1.6862,2.27c0.7579,0.1798,1.4943,0.2196,2.2846,0.3117
				c0.0994,0.0125,0.3112,0.0167,0.4708,0.0868c0.1396,0.0617,0.2102,0.1433,0.2364,0.2312
				c0.0381,0.1235,0.0229,0.2177-0.0581,0.316c-0.0858,0.1078-0.3128,0.1673-0.3128,0.1673l-0.0466,1.5973
				c0,0,0.6444-0.0261,1.1659-0.3378c0.4922-0.297,0.7976-0.6758,0.9085-1.1507c0.1271-0.5503,0.0397-1.0879-0.3483-1.6245
				c-0.2578-0.3556-0.7092-0.6109-1.1648-0.77c-0.9435-0.3295-1.9635-0.2793-2.9421-0.4195
				c-0.1474-0.0188-0.2845-0.1359-0.2981-0.2698c-0.0245-0.2495,0.2072-0.3619,0.2072-0.3619s-0.1161-0.3819-0.2406-0.7511
				c-0.1099-0.2814-0.2694-0.6715-0.3792-0.8781C57.2261,18.8501,56.7951,19.4642,56.7214,20.1498z"/>
			<path class="st1" d="M60.6922,23.1039l-0.0246,2.8673l-0.7181-0.3295l-0.7107-0.295l-0.0152-2.3934
				C59.86,23.0297,60.1503,23.037,60.6922,23.1039z"/>
			<path class="st1" d="M57.4792,24.6876c-0.3897,0.9258,0.1009,1.8348,0.8834,2.2198c0.408,0.1988,0.9436,0.3808,1.384,0.5503
				c0.43,0.1642,1.1925,0.6381,1.2484,0.8662c0.0392,0.137-0.1255,0.274-0.1255,0.274l-0.0178,1.1194
				c0,0,0.4681-0.0994,0.8128-0.385c0.3242-0.2678,0.5586-0.6151,0.557-1.1737c-0.0031-0.613-0.2871-1.0922-1.1585-1.5995
				c-0.6768-0.3995-1.4975-0.7145-2.1356-0.999c-0.0936-0.0397-0.1746-0.2228-0.139-0.3326
				c0.0376-0.1193,0.1114-0.1611,0.1114-0.1611l-0.0152-1.294c0,0-0.4906,0.0951-0.7218,0.2312
				C57.9484,24.1301,57.6257,24.3425,57.4792,24.6876z"/>
			<path class="st1" d="M60.5735,28.4975c0.0078-0.0942-0.0241-0.1067-0.0665-0.1684c-0.1929-0.1988-0.4686-0.338-0.535-0.3777
				c-0.2003-0.1182-0.6423-0.2825-0.6423-0.2825s0.0303,2.9322,0.0842,4.4479c0.0116,0.3462,0.2041,0.4351,0.5356,0.454
				c0.4049,0.023,0.522-0.2301,0.5272-0.3787C60.4939,31.7079,60.5541,29.6021,60.5735,28.4975z"/>
			<path class="st1" d="M60.8836,9.6206c0.1459,0.1083,0.1459,0.1161,0.1903,0.3322c0.0994,0.4676-0.0047,1.202,0.089,1.5231
				c0.0476,0.1035,0.1532,0.1014,0.2317,0.0581c0.6506-0.3521,1.0926-0.9536,1.7474-1.2339
				c0.3102-0.1308,1.1659,0.2986,0.9671,0.942c-0.092,0.3008-0.229,0.3462-0.4173,0.5439
				c-0.3808,0.3986-0.9242,0.7736-1.3965,1.2878c-0.3206,0.3515-0.7072,0.6035-0.954,0.9995
				c-0.0774,0.1245-0.2072,0.2981-0.2072,0.2981c-0.9137-0.1872-1.8312-0.1544-2.543-0.2981l-0.0016-1.0581
				c0,0,0.7259-0.1224,0.8625-0.4781c0.0094-0.0314-0.0105-0.1548-0.115-0.2312c-0.1224-0.0926-0.338-0.1878-0.4033-0.2113
				c0.727,0.1145,1.1795,0.2364,1.8824,0.5434c0.0477-0.0784,0.0199-0.2526-0.0334-0.3122
				c-0.0958-0.1072-0.148-0.1428-0.3949-0.2014c-0.4304-0.1129-1.5984-0.2553-1.5984-0.2553s0.5403-0.0031,0.9922-0.0768
				c0.2212-0.0372,0.4011-0.08,0.4503-0.1538c0.0518-0.113-0.0419-0.2834-0.1987-0.4461c-0.1021-0.1109-0.2177-0.2239-0.305-0.3384
				c-0.1056-0.148-0.2788-0.4142-0.4697-0.5822c-0.1653-0.1459-0.5769-0.3593-0.5769-0.3593s-0.0737-0.568,0.0419-0.7961
				c0.0858-0.1705,0.3055-0.2662,0.4231-0.2081C59.6702,9.2028,60.1854,9.4993,60.8836,9.6206z"/>
			<g>
				<path class="st1" d="M58.6221,29.5791c-0.1763,0.184-0.4723,0.5575-0.5236,1.1569c-0.0455,0.5356,0.0753,0.6863,0.2124,0.975
					c0.1103,0.2375,0.3682,0.2239,0.4597,0.0031c0.0737-0.18-0.0335-0.3473,0.0324-0.7417
					c0.0524-0.2845,0.2794-0.4425,0.2794-0.4425l-0.0215-1.3044C59.0608,29.2256,58.8563,29.3322,58.6221,29.5791z"/>
			</g>
		</g>
		<g>
			<path class="st0" d="M58.5833,10.7123c-0.1349,0.0962-0.2285,0.1956-0.3796,0.2176c-0.2977,0.0492-0.2553-0.2103-0.4624-0.3556
				c-0.125-0.0905-0.2437,0.0245-0.3572-0.1841c0.4342,0.0125,1.0048-0.0251,1.3286,0.3039
				C58.6727,10.6725,58.6011,10.7002,58.5833,10.7123z"/>
		</g>
	</g>
</g>
</svg>
